<svg xmlns="http://www.w3.org/2000/svg" viewBox="0 0 512 512">
  <defs>
    <linearGradient id="bg" x1="80" x2="432" y1="52" y2="460" gradientUnits="userSpaceOnUse">
      <stop offset="0" stop-color="#7fc8ff" />
      <stop offset="0.48" stop-color="#1d88ff" />
      <stop offset="1" stop-color="#0059d3" />
    </linearGradient>
    <linearGradient id="glow" x1="120" x2="316" y1="88" y2="240" gradientUnits="userSpaceOnUse">
      <stop offset="0" stop-color="#ffffff" stop-opacity="0.82" />
      <stop offset="1" stop-color="#ffffff" stop-opacity="0" />
    </linearGradient>
    <linearGradient id="clip" x1="172" x2="340" y1="92" y2="156" gradientUnits="userSpaceOnUse">
      <stop offset="0" stop-color="#59b1ff" />
      <stop offset="1" stop-color="#0a67e1" />
    </linearGradient>
    <filter id="shadow" x="-12%" y="-12%" width="124%" height="134%">
      <feDropShadow dx="0" dy="18" stdDeviation="18" flood-color="#0b4fb5" flood-opacity="0.28" />
    </filter>
  </defs>

  <rect x="28" y="28" width="456" height="456" rx="104" fill="url(#bg)" />
  <path
    d="M376 44c54 9 96 56 96 112v146c0 96-78 174-174 174H162c96-18 168-102 168-204V44Z"
    fill="#004fbf"
    opacity="0.26"
  />
  <path
    d="M92 92c48-44 120-60 188-48c18 3 24 26 10 38l-88 74c-14 12-35 12-49 0l-71-58c-12-10-13-29-1-40Z"
    fill="url(#glow)"
  />
  <rect x="40" y="40" width="432" height="432" rx="92" fill="none" stroke="#d6eeff" stroke-opacity="0.42" stroke-width="8" />

  <g filter="url(#shadow)">
    <rect x="136" y="118" width="240" height="290" rx="44" fill="#ffffff" />
    <rect x="162" y="88" width="188" height="76" rx="30" fill="url(#clip)" />
    <rect x="210" y="106" width="92" height="22" rx="11" fill="#ffffff" fill-opacity="0.92" />

    <rect x="180" y="198" width="148" height="18" rx="9" fill="#d9e8ff" />
    <rect x="180" y="234" width="112" height="18" rx="9" fill="#d9e8ff" />

    <rect x="182" y="278" width="70" height="70" rx="16" fill="#eef5ff" stroke="#1675f2" stroke-width="12" />
    <path d="M202 316l18 18l38-42" fill="none" stroke="#1675f2" stroke-linecap="round" stroke-linejoin="round" stroke-width="14" />

    <rect x="274" y="290" width="76" height="16" rx="8" fill="#d9e8ff" />
    <rect x="274" y="322" width="58" height="16" rx="8" fill="#d9e8ff" />
  </g>
</svg>
